HIERARCHY
ROOT Hips
{
	OFFSET 0.000000 0.000000 0.000000
	CHANNELS 6 Xposition Yposition Zposition Zrotation Yrotation Xrotation 
	JOINT LHipJoint
	{
		OFFSET 0.000000 0.000000 0.000000
		CHANNELS 3 Zrotation Yrotation Xrotation
		JOINT LeftUpLeg
		{
			OFFSET 1.363060 -1.794630 0.839290
			CHANNELS 3 Zrotation Yrotation Xrotation
			JOINT LeftLeg
			{
				OFFSET 2.448110 -6.726130 0.000000
				CHANNELS 3 Zrotation Yrotation Xrotation
				JOINT LeftFoot
				{
					OFFSET 2.562200 -7.039590 0.000000
					CHANNELS 3 Zrotation Yrotation Xrotation
					JOINT LeftToeBase
					{
						OFFSET 0.157640 -0.433110 2.322550
						CHANNELS 3 Zrotation Yrotation Xrotation
						End Site
						{
							OFFSET 0.000000 0.000000 0.000000
						}
					}
				}
			}
		}
	}
	JOINT RHipJoint
	{
		OFFSET 0.000000 0.000000 0.000000
		CHANNELS 3 Zrotation Yrotation Xrotation
		JOINT RightUpLeg
		{
			OFFSET -1.305520 -1.794630 0.839290
			CHANNELS 3 Zrotation Yrotation Xrotation
			JOINT RightLeg
			{
				OFFSET -2.542530 -6.985550 0.000000
				CHANNELS 3 Zrotation Yrotation Xrotation
				JOINT RightFoot
				{
					OFFSET -2.568260 -7.056230 0.000000
					CHANNELS 3 Zrotation Yrotation Xrotation
					JOINT RightToeBase
					{
						OFFSET -0.164730 -0.452590 2.363150
						CHANNELS 3 Zrotation Yrotation Xrotation
						End Site
						{
							OFFSET 0.000000 0.000000 0.000000
						}
					}
				}
			}
		}
	}
	JOINT LowerBack
	{
		OFFSET 0.000000 0.000000 0.000000
		CHANNELS 3 Zrotation Yrotation Xrotation
		JOINT Spine
		{
			OFFSET 0.028270 2.035590 -0.193380
			CHANNELS 3 Zrotation Yrotation Xrotation
			JOINT Spine1
			{
				OFFSET 0.056720 2.048850 -0.042750
				CHANNELS 3 Zrotation Yrotation Xrotation
				JOINT Neck
				{
					OFFSET 0.000000 0.000000 0.000000
					CHANNELS 3 Zrotation Yrotation Xrotation
					JOINT Neck1
					{
						OFFSET -0.054170 1.746240 0.172020
						CHANNELS 3 Zrotation Yrotation Xrotation
						JOINT Head
						{
							OFFSET 0.104070 1.761360 -0.123970
							CHANNELS 3 Zrotation Yrotation Xrotation
							End Site
							{
								OFFSET 0.000000 0.000000 0.000000
							}
						}
					}
				}
				JOINT LeftShoulder
				{
					OFFSET 0.000000 0.000000 0.000000
					CHANNELS 3 Zrotation Yrotation Xrotation
					JOINT LeftArm
					{
						OFFSET 3.362410 1.200890 -0.311210
						CHANNELS 3 Zrotation Yrotation Xrotation
						JOINT LeftForeArm
						{
							OFFSET 4.983000 -0.000000 -0.000000
							CHANNELS 3 Zrotation Yrotation Xrotation
							JOINT LeftHand
							{
								OFFSET 3.483560 -0.000000 -0.000000
								CHANNELS 3 Zrotation Yrotation Xrotation
								JOINT LeftFingerBase
								{
									OFFSET 0.000000 0.000000 0.000000
									CHANNELS 3 Zrotation Yrotation Xrotation
									JOINT LeftHandIndex1
									{
										OFFSET 0.715260 -0.000000 -0.000000
										CHANNELS 3 Zrotation Yrotation Xrotation
										End Site
										{
											OFFSET 0.000000 0.000000 0.000000
										}
									}
								}
								JOINT LThumb
								{
									OFFSET 0.000000 0.000000 0.000000
									CHANNELS 3 Zrotation Yrotation Xrotation
									End Site
									{
										OFFSET 0.000000 0.000000 0.000000
									}
								}
							}
						}
					}
				}
				JOINT RightShoulder
				{
					OFFSET 0.000000 0.000000 0.000000
					CHANNELS 3 Zrotation Yrotation Xrotation
					JOINT RightArm
					{
						OFFSET -3.136600 1.374050 -0.404650
						CHANNELS 3 Zrotation Yrotation Xrotation
						JOINT RightForeArm
						{
							OFFSET -5.241900 -0.000000 -0.000000
							CHANNELS 3 Zrotation Yrotation Xrotation
							JOINT RightHand
							{
								OFFSET -3.444170 -0.000000 -0.000000
								CHANNELS 3 Zrotation Yrotation Xrotation
								JOINT RightFingerBase
								{
									OFFSET 0.000000 0.000000 0.000000
									CHANNELS 3 Zrotation Yrotation Xrotation
									JOINT RightHandIndex1
									{
										OFFSET -0.622530 -0.000000 -0.000000
										CHANNELS 3 Zrotation Yrotation Xrotation
										End Site
										{
											OFFSET 0.000000 0.000000 0.000000
										}
									}
								}
								JOINT RThumb
								{
									OFFSET 0.000000 0.000000 0.000000
									CHANNELS 3 Zrotation Yrotation Xrotation
									End Site
									{
										OFFSET 0.000000 0.000000 0.000000
									}
								}
							}
						}
					}
				}
			}
		}
	}
}
MOTION
Frames: 11
Frame Time: 0.008333
0.403114 17.825905 -14.074676 -2.020174 -1.357620 6.610370 -1.249587 0.202012 0.942059 -14.604167 3.011094 -13.894081 -0.401243 5.626795 15.590224 -0.388477 3.578578 -1.017886 0.023400 0.988400 2.716800 -0.872172 -0.479825 -0.102009 20.155633 0.987981 -12.964005 -0.303474 -6.573148 18.662907 -0.458345 1.408450 -3.738018 -0.930200 -6.143900 17.202600 1.789353 -0.795548 -3.321057 1.504214 -1.179365 -1.911565 0.723121 -0.938606 8.494145 -3.485802 -0.665505 -9.671558 2.055539 0.156428 36.279760 0.484300 0.444400 13.965300 9.287718 5.738221 0.492924 -99.612462 -8.154822 38.827894 7.673673 -17.012593 -1.128818 -0.066240 -0.721054 -3.713210 26.247262 -4.644622 -1.902100 -7.125000 0.000000 0.000000 -0.200200 25.693300 0.093600 -8.398705 -4.642223 0.251539 96.354280 5.223510 16.318729 -9.281445 20.724224 -1.873680 0.685806 0.903581 32.300075 -22.084278 -24.034705 9.864500 7.125000 0.000000 0.000000 8.223100 -56.768500 -2.383000 
0.402304 17.825703 -14.075182 -2.031043 -1.347947 6.606230 -1.248989 0.202234 0.941106 -14.585885 2.982900 -13.887779 -0.399992 5.631587 15.603110 -0.390096 3.586523 -1.025979 0.024200 1.004100 2.760200 -0.872284 -0.479782 -0.102274 20.171523 1.005483 -12.948893 -0.302591 -6.570606 18.655555 -0.453075 1.373103 -3.742480 -0.928200 -6.137600 17.184200 1.792774 -0.786239 -3.324823 1.503987 -1.167262 -1.909180 0.723101 -0.932753 8.503980 -3.473960 -0.669991 -9.686632 2.036262 0.157062 36.275633 0.473400 0.444300 13.968100 9.289001 5.739251 0.492902 -99.625061 -8.179692 38.864073 7.677779 -17.019496 -1.131954 -0.064057 -0.720450 -3.664437 26.148522 -4.537300 -1.841500 -7.125000 0.000000 0.000000 -0.274700 25.815200 0.127700 -8.398179 -4.642009 0.251006 96.355166 5.216491 16.333287 -9.296403 20.748729 -1.879096 0.684820 0.905051 32.259962 -22.076789 -24.075948 9.875500 7.125000 0.000000 0.000000 8.250500 -56.809800 -2.399300 
0.402709 17.825601 -14.074879 -2.034250 -1.343472 6.592425 -1.248523 0.203225 0.941467 -14.584290 2.975137 -13.876971 -0.398289 5.636491 15.616616 -0.394191 3.606630 -1.031029 0.023000 0.980100 2.694200 -0.872169 -0.480692 -0.101878 20.174932 0.979846 -12.939616 -0.302302 -6.568567 18.651519 -0.455600 1.392318 -3.733219 -0.925700 -6.129600 17.161000 1.793808 -0.791351 -3.314181 1.503784 -1.173495 -1.909310 0.720168 -0.935683 8.498974 -3.479723 -0.662632 -9.690755 2.030854 0.171831 36.283164 0.475100 0.449000 13.974000 9.288481 5.739196 0.492500 -99.629983 -8.172555 38.897907 7.688419 -17.037798 -1.134720 -0.063414 -0.720826 -3.735505 26.178042 -4.541932 -1.845900 -7.125000 0.000000 0.000000 -0.252200 25.809400 0.117200 -8.399080 -4.641317 0.250835 96.348532 5.207025 16.423991 -9.304720 20.763390 -1.882675 0.682639 0.905896 32.218290 -22.024970 -24.076234 9.849600 7.125000 0.000000 0.000000 8.307200 -56.798000 -2.413500 
0.402203 17.825399 -14.075790 -2.047717 -1.333002 6.590605 -1.247842 0.203011 0.941095 -14.567341 2.965513 -13.885677 -0.397244 5.640221 15.626974 -0.393883 3.604811 -1.028896 0.022900 0.977800 2.687700 -0.872092 -0.480537 -0.101290 20.191059 0.999691 -12.931440 -0.301830 -6.567446 18.648058 -0.451495 1.364143 -3.742091 -0.925300 -6.128300 17.157000 1.805299 -0.784380 -3.308178 1.503304 -1.164590 -1.912320 0.715153 -0.930021 8.482851 -3.482091 -0.662867 -9.665909 2.031219 0.170327 36.272506 0.475300 0.448100 13.962300 9.289338 5.737935 0.492585 -99.622574 -8.159587 38.947025 7.700312 -17.058077 -1.139228 -0.063134 -0.720536 -3.760507 26.142040 -4.552528 -1.848500 -7.125000 0.000000 0.000000 -0.279700 25.798400 0.130100 -8.399654 -4.640274 0.250744 96.351902 5.203043 16.432641 -9.307654 20.767448 -1.883407 0.682494 0.906525 32.207957 -22.027216 -24.111528 9.863400 7.125000 0.000000 0.000000 8.321000 -56.835300 -2.425100 
0.402001 17.825196 -14.076296 -2.053140 -1.323651 6.583019 -1.247397 0.203366 0.941133 -14.560074 2.957587 -13.883374 -0.396392 5.643051 15.634903 -0.394514 3.608168 -1.028486 0.022900 0.977500 2.686800 -0.872077 -0.480823 -0.100965 20.198179 1.001234 -12.923237 -0.301967 -6.567155 18.647927 -0.449968 1.353293 -3.746090 -0.923800 -6.123200 17.142400 1.807293 -0.780968 -3.301720 1.502841 -1.159884 -1.913405 0.713926 -0.927408 8.474271 -3.484156 -0.660761 -9.655575 2.027497 0.174948 36.268025 0.474700 0.449500 13.957700 9.289783 5.737305 0.492477 -99.620686 -8.153251 38.992271 7.711335 -17.077072 -1.142807 -0.062560 -0.720520 -3.797783 26.133351 -4.551903 -1.847600 -7.125000 0.000000 0.000000 -0.286300 25.799100 0.133200 -8.399993 -4.639475 0.250639 96.349962 5.198252 16.466246 -9.312284 20.774752 -1.884973 0.681991 0.907092 32.184592 -22.021779 -24.128348 9.866700 7.125000 0.000000 0.000000 8.334600 -56.851500 -2.432400 
0.401697 17.824994 -14.076802 -2.054918 -1.313841 6.574156 -1.247054 0.203817 0.941434 -14.557192 2.951583 -13.879386 -0.395709 5.645141 15.640837 -0.395022 3.610073 -1.027629 0.023000 0.978300 2.689000 -0.871998 -0.481218 -0.100512 20.200874 0.999577 -12.915743 -0.302360 -6.567697 18.650127 -0.448948 1.346053 -3.750571 -0.922200 -6.118300 17.128000 1.806374 -0.777792 -3.293334 1.502079 -1.155102 -1.915131 0.713460 -0.924741 8.462589 -3.485798 -0.658052 -9.643417 2.023356 0.180633 36.265240 0.474000 0.451300 13.953800 9.290205 5.736510 0.492224 -99.616650 -8.143595 39.036546 7.721693 -17.095048 -1.145920 -0.062341 -0.720576 -3.838494 26.142056 -4.567177 -1.855800 -7.125000 0.000000 0.000000 -0.279800 25.781900 0.130300 -8.400277 -4.638453 0.250496 96.347035 5.192502 16.497344 -9.315326 20.779463 -1.885778 0.681721 0.907593 32.165587 -22.020894 -24.145880 9.872600 7.125000 0.000000 0.000000 8.343700 -56.869600 -2.438700 
0.401393 17.824791 -14.077409 -2.055381 -1.300788 6.565979 -1.246839 0.204275 0.941803 -14.554904 2.944607 -13.874340 -0.395573 5.645681 15.642550 -0.394646 3.608083 -1.023792 0.023200 0.982700 2.701100 -0.871935 -0.481535 -0.100138 20.202476 0.999109 -12.909614 -0.303140 -6.569082 18.654657 -0.447603 1.335778 -3.758859 -0.921300 -6.115300 17.119300 1.803943 -0.774980 -3.284444 1.501332 -1.150776 -1.916819 0.713609 -0.922602 8.451242 -3.485010 -0.655352 -9.634992 2.017348 0.186833 36.262066 0.472000 0.453500 13.951100 9.290655 5.735681 0.491723 -99.610113 -8.137155 39.079660 7.731352 -17.111806 -1.148827 -0.062362 -0.720610 -3.872401 26.156206 -4.590277 -1.868300 -7.125000 0.000000 0.000000 -0.269300 25.755800 0.125500 -8.400416 -4.637224 0.250242 96.345078 5.191116 16.520278 -9.316921 20.781305 -1.886050 0.681700 0.907928 32.151715 -22.025312 -24.160904 9.880200 7.125000 0.000000 0.000000 8.345700 -56.886300 -2.442700 
0.401191 17.824690 -14.078118 -2.052108 -1.287247 6.558360 -1.246747 0.204680 0.942157 -14.556552 2.936650 -13.867750 -0.395751 5.645499 15.642136 -0.394355 3.606758 -1.019931 0.023300 0.986400 2.711300 -0.871757 -0.481867 -0.099774 20.199785 0.994915 -12.905525 -0.303932 -6.570814 18.660058 -0.446400 1.327288 -3.761360 -0.920400 -6.112400 17.111000 1.798964 -0.772450 -3.276866 1.500225 -1.146642 -1.918330 0.713753 -0.920574 8.441129 -3.484685 -0.651953 -9.627538 2.011204 0.194160 36.258414 0.470200 0.456200 13.948400 9.290955 5.734904 0.491184 -99.601646 -8.130931 39.118209 7.742064 -17.130754 -1.152001 -0.062194 -0.720708 -3.904073 26.172467 -4.604165 -1.876400 -7.125000 0.000000 0.000000 -0.257100 25.739800 0.119900 -8.400641 -4.636050 0.250052 96.343810 5.192786 16.537643 -9.316629 20.780218 -1.885628 0.681769 0.908171 32.145236 -22.029252 -24.174947 9.887200 7.125000 0.000000 0.000000 8.347900 -56.901800 -2.446400 
0.400887 17.824690 -14.078928 -2.048473 -1.272759 6.552879 -1.246699 0.204868 0.942295 -14.558640 2.927512 -13.863190 -0.396021 5.645038 15.641051 -0.393804 3.603804 -1.015079 0.023400 0.988000 2.715800 -0.871513 -0.482061 -0.099469 20.196762 0.989071 -12.904131 -0.304702 -6.572291 18.664681 -0.445298 1.319633 -3.764485 -0.920100 -6.111400 17.108000 1.794449 -0.770322 -3.270264 1.499050 -1.143212 -1.919654 0.713179 -0.918849 8.432680 -3.482640 -0.648533 -9.623957 2.003182 0.202331 36.254099 0.467400 0.459200 13.946600 9.291174 5.734179 0.490435 -99.590745 -8.128890 39.150872 7.751518 -17.147381 -1.154614 -0.062310 -0.720814 -3.928286 26.196435 -4.626528 -1.889300 -7.125000 0.000000 0.000000 -0.239200 25.714400 0.111700 -8.400932 -4.634752 0.249778 96.344731 5.198598 16.550202 -9.316859 20.779878 -1.885460 0.681679 0.908425 32.140703 -22.028271 -24.190172 9.892200 7.125000 0.000000 0.000000 8.355900 -56.917200 -2.451900 
0.400583 17.824690 -14.079738 -2.044286 -1.258570 6.550035 -1.246726 0.204794 0.942182 -14.561085 2.918556 -13.861001 -0.396355 5.644601 15.639623 -0.392750 3.598589 -1.010297 0.023600 0.990800 2.723400 -0.871293 -0.482110 -0.099306 20.193302 0.981956 -12.905935 -0.305235 -6.573424 18.668285 -0.444312 1.312978 -3.766412 -0.919800 -6.110300 17.104700 1.789893 -0.768510 -3.267714 1.498124 -1.140281 -1.920405 0.713486 -0.917574 8.428343 -3.483359 -0.644685 -9.621479 1.994990 0.211962 36.247702 0.465300 0.462400 13.943500 9.291289 5.733551 0.489858 -99.580212 -8.132759 39.170673 7.760169 -17.162863 -1.157407 -0.062008 -0.720849 -3.941878 26.203363 -4.626203 -1.889700 -7.125000 0.000000 0.000000 -0.234100 25.714500 0.109300 -8.401264 -4.633646 0.249591 96.345354 5.209755 16.560042 -9.316522 20.778629 -1.885156 0.681659 0.908488 32.136908 -22.029046 -24.197336 9.895200 7.125000 0.000000 0.000000 8.358100 -56.924900 -2.454100 
0.400381 17.824690 -14.080548 -2.042366 -1.245179 6.548428 -1.246653 0.204588 0.941897 -14.561481 2.909701 -13.861386 -0.396615 5.644624 15.639537 -0.391675 3.593193 -1.005399 0.023600 0.991800 2.726100 -0.871034 -0.482044 -0.099173 20.192435 0.974968 -12.909056 -0.305631 -6.574117 18.670173 -0.443517 1.307027 -3.768723 -0.919300 -6.108800 17.100600 1.789329 -0.765768 -3.265844 1.497067 -1.136426 -1.921129 0.711284 -0.915318 8.424149 -3.483017 -0.640672 -9.617525 1.987067 0.221206 36.239406 0.463100 0.465600 13.939100 9.291430 5.732849 0.489250 -99.566858 -8.138786 39.185331 7.768898 -17.178461 -1.160243 -0.061688 -0.720874 -3.954312 26.208124 -4.624353 -1.889100 -7.125000 0.000000 0.000000 -0.230500 25.716600 0.107600 -8.401757 -4.632512 0.249466 96.347864 5.220009 16.568589 -9.318183 20.780727 -1.885780 0.681628 0.908274 32.127883 -22.032684 -24.193786 9.895700 7.125000 0.000000 0.000000 8.352300 -56.921900 -2.451800 
